<svg width="218" height="19" fill="none" xmlns="http://www.w3.org/2000/svg"><path d="M.486 1.701h9.156c.13 0 .243.048.34.142a.447.447 0 0 1 .146.33c0 .142-.049.26-.146.354a.524.524 0 0 1-.34.118H.777l.243-.4V9.56L.73 9.23h7.82c.13 0 .243.047.34.141a.447.447 0 0 1 .146.33c0 .142-.049.26-.146.355a.524.524 0 0 1-.34.118H.777l.243-.26v7.481l-.097-.118h8.72c.129 0 .242.047.34.142a.447.447 0 0 1 .145.33c0 .142-.049.26-.146.354a.524.524 0 0 1-.34.118H.486a.473.473 0 0 1-.34-.142.447.447 0 0 1-.146-.33V2.173c0-.125.049-.236.146-.33a.473.473 0 0 1 .34-.142ZM22.451 17.277c.13 0 .243.047.34.142a.447.447 0 0 1 .146.33c0 .142-.049.26-.146.354a.524.524 0 0 1-.34.118h-8.913a.502.502 0 0 1-.365-.142.492.492 0 0 1-.121-.33V2.173c0-.125.048-.236.146-.33a.502.502 0 0 1 .364-.142c.146 0 .267.048.364.142a.447.447 0 0 1 .146.33v15.529l-.437-.425h8.816ZM25.498 1.701h9.157c.13 0 .243.048.34.142a.447.447 0 0 1 .146.33c0 .142-.049.26-.146.354a.524.524 0 0 1-.34.118H25.79l.243-.4V9.56l-.292-.33h7.821c.13 0 .243.047.34.141a.447.447 0 0 1 .146.33c0 .142-.049.26-.146.355a.524.524 0 0 1-.34.118H25.79l.243-.26v7.481l-.097-.118h8.719c.13 0 .243.047.34.142a.447.447 0 0 1 .146.33c0 .142-.049.26-.146.354a.524.524 0 0 1-.34.118h-9.157a.473.473 0 0 1-.34-.142.447.447 0 0 1-.145-.33V2.173c0-.125.048-.236.145-.33a.473.473 0 0 1 .34-.142ZM50.646 3.07c.13.095.202.205.218.33a.515.515 0 0 1-.097.355.445.445 0 0 1-.316.188.695.695 0 0 1-.34-.094 9.128 9.128 0 0 0-2.234-1.086 7.932 7.932 0 0 0-2.55-.4 7.505 7.505 0 0 0-2.915.566 7.095 7.095 0 0 0-2.356 1.557 7.366 7.366 0 0 0-1.603 2.407c-.389.929-.583 1.951-.583 3.068s.195 2.14.583 3.068c.389.928.923 1.73 1.603 2.407a7.411 7.411 0 0 0 2.356 1.581 7.79 7.79 0 0 0 2.915.543c.906 0 1.756-.133 2.55-.401a9.806 9.806 0 0 0 2.21-1.062.512.512 0 0 1 .364-.094c.13.015.235.078.316.188.081.11.113.229.097.354a.43.43 0 0 1-.194.307c-.389.268-.883.527-1.482.779a9.932 9.932 0 0 1-1.87.59 8.612 8.612 0 0 1-1.991.236 8.443 8.443 0 0 1-3.28-.637 8.544 8.544 0 0 1-2.695-1.77 8.744 8.744 0 0 1-1.846-2.69c-.437-1.039-.656-2.172-.656-3.399 0-1.227.219-2.352.656-3.375a8.385 8.385 0 0 1 1.846-2.69 8.347 8.347 0 0 1 2.696-1.793 8.443 8.443 0 0 1 3.279-.638c.987 0 1.934.142 2.841.425a8.935 8.935 0 0 1 2.478 1.18ZM58.226 18.221a.502.502 0 0 1-.364-.142.492.492 0 0 1-.122-.33V2.268h.972v15.481a.447.447 0 0 1-.146.33.473.473 0 0 1-.34.142ZM52.324 2.598a.524.524 0 0 1-.34-.118.447.447 0 0 1-.146-.33c0-.126.049-.228.146-.307a.473.473 0 0 1 .34-.142h11.804c.13 0 .243.048.34.142.097.079.146.18.146.307a.401.401 0 0 1-.146.33.524.524 0 0 1-.34.118H52.324ZM67.667 18.221a.534.534 0 0 1-.389-.142.492.492 0 0 1-.121-.33V2.173c0-.125.048-.236.145-.33a.473.473 0 0 1 .34-.142h6.413c.955 0 1.789.19 2.501.567.729.362 1.296.865 1.7 1.51.405.645.608 1.377.608 2.195 0 .724-.138 1.377-.413 1.959a3.888 3.888 0 0 1-1.118 1.463 4.515 4.515 0 0 1-1.627.826l-1.117-.189c.648 0 1.263.165 1.846.496.583.314 1.06.786 1.433 1.415.372.614.558 1.37.558 2.266 0 .771.033 1.361.097 1.77.081.393.179.684.292.873.13.189.275.338.437.449.097.063.17.141.219.236a.456.456 0 0 1-.146.566.54.54 0 0 1-.219.094.424.424 0 0 1-.267-.047 2.707 2.707 0 0 1-.68-.566c-.21-.252-.389-.637-.534-1.157-.146-.519-.219-1.258-.219-2.218 0-.74-.121-1.33-.364-1.77a2.546 2.546 0 0 0-.899-1.015 3.13 3.13 0 0 0-1.166-.472 5.887 5.887 0 0 0-1.117-.118h-5.902l.219-.283v7.198a.446.446 0 0 1-.146.33.502.502 0 0 1-.364.142Zm.267-8.33h6.242a4.446 4.446 0 0 0 1.797-.567 3.66 3.66 0 0 0 1.336-1.322c.356-.566.534-1.235.534-2.006 0-.96-.356-1.754-1.068-2.383-.697-.645-1.644-.968-2.842-.968h-5.878l.122-.165v7.67l-.243-.26ZM83.577 17.725a.568.568 0 0 1-.17.354.473.473 0 0 1-.34.142.534.534 0 0 1-.389-.142.524.524 0 0 1-.121-.354V2.197c0-.142.048-.26.145-.354a.502.502 0 0 1 .365-.142c.146 0 .267.048.364.142a.473.473 0 0 1 .146.354v15.528ZM100.291 3.07c.13.095.203.205.219.33a.516.516 0 0 1-.097.355.445.445 0 0 1-.316.188.695.695 0 0 1-.34-.094 9.128 9.128 0 0 0-2.234-1.086 7.932 7.932 0 0 0-2.55-.4 7.505 7.505 0 0 0-2.915.566 7.095 7.095 0 0 0-2.356 1.557 7.368 7.368 0 0 0-1.603 2.407c-.389.929-.583 1.951-.583 3.068s.194 2.14.583 3.068c.388.928.923 1.73 1.603 2.407a7.411 7.411 0 0 0 2.356 1.581 7.79 7.79 0 0 0 2.914.543c.907 0 1.757-.133 2.55-.401a9.806 9.806 0 0 0 2.21-1.062.513.513 0 0 1 .365-.094c.13.015.235.078.316.188.081.11.113.229.097.354a.43.43 0 0 1-.194.307c-.389.268-.883.527-1.482.779a9.932 9.932 0 0 1-1.87.59 8.612 8.612 0 0 1-1.992.236 8.443 8.443 0 0 1-3.278-.637 8.543 8.543 0 0 1-2.696-1.77 8.743 8.743 0 0 1-1.846-2.69c-.438-1.039-.656-2.172-.656-3.399 0-1.227.219-2.352.656-3.375a8.385 8.385 0 0 1 1.846-2.69 8.347 8.347 0 0 1 2.695-1.793 8.443 8.443 0 0 1 3.28-.638c.987 0 1.934.142 2.841.425a8.927 8.927 0 0 1 2.477 1.18ZM112.109 17.323c-1.468-1.056-2.202-2.632-2.202-4.727 0-2.077.639-3.67 1.916-4.78-1.168.23-2.088.766-2.758 1.611-.661.854-.992 1.924-.992 3.209 0 1.276.353 2.315 1.06 3.116.706.792 1.698 1.316 2.976 1.571ZM128.021 6.92c-.244-.07-.575-.106-.992-.106-.407 0-.833.057-1.277.172a5.782 5.782 0 0 0-1.291.488 7.504 7.504 0 0 0-2.283 1.73c-1.069 1.197-2.201 2.038-3.397 2.522h.312c1.386 0 2.863-.625 4.43-1.875.417-.343.807-.678 1.169-1.004.371-.325.729-.629 1.074-.91.344-.291.67-.507.978-.648.489-.21.915-.334 1.277-.37Zm-9.05-3.407a.92.92 0 0 0-.285-.686.951.951 0 0 0-.707-.29.995.995 0 0 0-.72.29.92.92 0 0 0-.285.686c0 .273.095.506.285.7.199.185.439.277.72.277a.975.975 0 0 0 .707-.277.963.963 0 0 0 .285-.7Zm9.39 9.256c.091-.097.163-.203.217-.317.055-.114.082-.273.082-.475 0-.203-.1-.396-.299-.581a.951.951 0 0 0-.707-.29.95.95 0 0 0-.706.29.902.902 0 0 0-.286.673.99.99 0 0 0 .286.7c.19.193.389.29.598.29.208 0 .371-.026.489-.079.127-.053.235-.123.326-.211Zm-13.222-1.98.163.026c.055.053.263.079.625.079.372 0 .739-.026 1.101-.08.371-.06.77-.18 1.196-.356 1.005-.431 1.925-1.113 2.758-2.046 1.296-1.444 2.786-2.381 4.471-2.813a7.474 7.474 0 0 1 1.767-.198c.634 0 1.254.146 1.861.436a4.974 4.974 0 0 1 1.563 1.122c.888.969 1.332 2.135 1.332 3.5 0 1.196-.408 2.165-1.223 2.904-.789.713-1.781 1.07-2.976 1.07-.707 0-1.309-.23-1.808-.687-.507-.458-.761-1.012-.761-1.664 0-.651.245-1.21.734-1.677a2.344 2.344 0 0 1 1.712-.7 2.37 2.37 0 0 1 1.713.687c.462.45.702 1.004.72 1.664.308-.449.462-.982.462-1.598-.091-.977-.521-1.646-1.291-2.007a1.844 1.844 0 0 0-.815-.185c-.29 0-.558.049-.802.146a3.42 3.42 0 0 0-.693.356 12.92 12.92 0 0 0-.965.819c-.426.387-.788.708-1.087.964-.299.255-.621.515-.965.779-.806.607-1.54 1.047-2.201 1.32.054.335.081.66.081.977 0 1.576-.67 2.883-2.011 3.922-1.259.968-2.713 1.452-4.362 1.452-4.104 0-6.799-1.127-8.085-3.38a5.354 5.354 0 0 1-.707-2.694c0-.968.091-1.76.272-2.376.19-.625.462-1.189.815-1.69.707-1.03 1.708-1.756 3.003-2.179-1.06-.695-1.59-1.633-1.59-2.812 0-1.285.616-2.276 1.849-2.971C112.045.299 113.391 0 115.03 0c2.564 0 4.236.713 5.015 2.139.235.449.353.871.353 1.268 0 .396-.063.739-.19 1.03a2.382 2.382 0 0 1-.517.739 2.365 2.365 0 0 1-1.712.686c-.67 0-1.241-.228-1.712-.686-.471-.458-.707-1.06-.707-1.81 0-.756.349-1.36 1.047-1.808a6.495 6.495 0 0 0-1.522-.158c-.571 0-1.124.04-1.658.118a5.36 5.36 0 0 0-1.427.41c-.933.431-1.4 1.087-1.4 1.967 0 .616.272 1.131.816 1.545.806.607 2.011.91 3.614.91h.055c.181 0 .335.067.462.199a.706.706 0 0 1 .231.475v.027a.65.65 0 0 1-.19.462c-.118.132-.231.207-.34.224-.1.01-.249.031-.449.066-.199.036-.439.11-.72.225a4.465 4.465 0 0 0-.91.488 3.554 3.554 0 0 0-.897.859c-.634.827-.951 1.9-.951 3.221 0 1.47.489 2.623 1.467 3.46.924.774 2.125 1.162 3.601 1.162 1.124 0 2.061-.317 2.813-.951.797-.651 1.196-1.532 1.196-2.64 0-.186-.018-.384-.054-.595-.336.07-.775.106-1.319.106a8.542 8.542 0 0 1-1.576-.146 13.88 13.88 0 0 1-1.345-.343c-.625-.211-1.033-.37-1.223-.475-.308-.194-.462-.41-.462-.647 0-.247.077-.432.231-.555a.77.77 0 0 1 .489-.185ZM137.761 18.221v-.86h1.392l.253-.246V2.857l-.253-.246h-1.392v-.86h8.476c.792 0 1.56.082 2.302.245a6.478 6.478 0 0 1 2.024.787 3.952 3.952 0 0 1 1.442 1.377c.371.557.556 1.245.556 2.065 0 .786-.193 1.483-.581 2.09a4.825 4.825 0 0 1-1.493 1.523 7.457 7.457 0 0 1-2.049.934 7.953 7.953 0 0 1-2.201.32h-4.048l1.138-.295v6.318l.253.246h2.024v.86h-7.843Zm5.566-7.645-1.138-.344h3.036a3.54 3.54 0 0 0 1.568-.345c.472-.245.852-.647 1.139-1.204.303-.557.455-1.311.455-2.262 0-.82-.152-1.507-.455-2.065-.304-.573-.7-1.008-1.189-1.303a2.819 2.819 0 0 0-1.518-.442h-1.645l-.253.246v7.719ZM163.336 18.221v-.86h1.518l.253-.246-4.756-6.834h4.427l5.111 7.08h1.644v.86h-8.197Zm-.658-16.47c.793 0 1.561.081 2.303.245a6.876 6.876 0 0 1 2.024.762 3.902 3.902 0 0 1 1.442 1.303c.371.525.556 1.164.556 1.918 0 .72-.194 1.368-.582 1.942a5.036 5.036 0 0 1-1.492 1.475 7.915 7.915 0 0 1-2.049.91 8.572 8.572 0 0 1-2.202.294h-4.048l1.139-1.106v7.62l.253.247h1.391v.86h-7.21v-.86h1.391l.253-.246V2.857l-.253-.246h-1.391v-.86h8.475Zm-2.909 9.095L158.63 9.74h3.036a3.54 3.54 0 0 0 1.569-.344c.472-.23.852-.607 1.139-1.131.303-.524.455-1.221.455-2.09 0-.737-.152-1.368-.455-1.892-.304-.541-.7-.951-1.19-1.23a2.814 2.814 0 0 0-1.518-.442h-1.644l-.253.246v7.99ZM185.925 13.55h.885l-1.087 4.671h-12.929v-.86h1.392l.253-.246V2.857l-.253-.246h-1.392v-.86h12.676l.91 3.933-.834.246c-.405-.869-.894-1.54-1.468-2.016a5.128 5.128 0 0 0-1.923-1.008 8.2 8.2 0 0 0-2.251-.295h-1.291l-.253.246v7.497l-1.138-1.106h2.479c.725 0 1.366-.237 1.923-.713.573-.491.86-1.155.86-1.99h.886v6.268h-.886c0-.836-.287-1.492-.86-1.967a2.82 2.82 0 0 0-1.923-.737h-2.479l1.138-1.107v8.113l.253.246h1.544a6.248 6.248 0 0 0 3.339-.935c1.012-.622 1.822-1.581 2.429-2.876ZM193.196 4.578c0 .573.16 1.065.481 1.475.32.393.742.737 1.265 1.032.54.295 1.121.574 1.746.836.64.262 1.273.549 1.897.86a9.674 9.674 0 0 1 1.746 1.082c.539.41.969.918 1.29 1.524.32.59.481 1.311.481 2.163 0 1.016-.253 1.893-.759 2.63-.506.738-1.232 1.303-2.176 1.697-.945.393-2.083.59-3.416.59-.927 0-1.762-.09-2.504-.27-.726-.18-1.358-.427-1.898-.738l-.43.737h-.885a22.389 22.389 0 0 0-.203-1.868 66.393 66.393 0 0 0-.329-2.065 31.802 31.802 0 0 0-.354-1.794l.835-.246c.59 1.327 1.206 2.376 1.847 3.146.658.77 1.332 1.32 2.024 1.647.708.312 1.408.468 2.1.468.556 0 1.046-.083 1.467-.246.439-.18.776-.435 1.012-.762.253-.345.38-.762.38-1.254 0-.59-.161-1.082-.481-1.475-.32-.41-.751-.762-1.29-1.057a13.12 13.12 0 0 0-1.746-.86 61.26 61.26 0 0 1-1.897-.836 12.191 12.191 0 0 1-1.746-1.057 4.986 4.986 0 0 1-1.265-1.45c-.321-.574-.481-1.27-.481-2.09 0-.984.245-1.836.734-2.557.506-.737 1.223-1.311 2.15-1.72.928-.41 2.033-.615 3.315-.615.708 0 1.374.073 1.998.221.624.147 1.215.41 1.771.787l.43-.762h.886c.067.835.177 1.729.329 2.68.168.95.337 1.81.506 2.58l-.835.246c-.489-1.245-1.054-2.212-1.695-2.9-.641-.689-1.291-1.172-1.948-1.451-.658-.279-1.282-.418-1.872-.418-.726 0-1.325.18-1.797.54-.455.361-.683.878-.683 1.55ZM209.094 4.578c0 .573.161 1.065.481 1.475.321.393.742.737 1.265 1.032.54.295 1.122.574 1.746.836a27.93 27.93 0 0 1 1.897.86 9.673 9.673 0 0 1 1.746 1.082c.54.41.97.918 1.29 1.524.321.59.481 1.311.481 2.163 0 1.016-.253 1.893-.759 2.63-.506.738-1.231 1.303-2.176 1.697-.944.393-2.083.59-3.415.59-.928 0-1.763-.09-2.505-.27-.725-.18-1.358-.427-1.897-.738l-.431.737h-.885a22.355 22.355 0 0 0-.202-1.868 69.52 69.52 0 0 0-.329-2.065 30.858 30.858 0 0 0-.355-1.794l.835-.246c.591 1.327 1.206 2.376 1.847 3.146.658.77 1.333 1.32 2.024 1.647.709.312 1.409.468 2.1.468.557 0 1.046-.083 1.468-.246.438-.18.775-.435 1.012-.762.253-.345.379-.762.379-1.254 0-.59-.16-1.082-.481-1.475-.32-.41-.75-.762-1.29-1.057a13.12 13.12 0 0 0-1.746-.86 62.092 62.092 0 0 1-1.897-.836 12.237 12.237 0 0 1-1.746-1.057 5.001 5.001 0 0 1-1.265-1.45c-.32-.574-.481-1.27-.481-2.09 0-.984.245-1.836.734-2.557.506-.737 1.223-1.311 2.151-1.72.927-.41 2.032-.615 3.314-.615.708 0 1.375.073 1.999.221.624.147 1.214.41 1.771.787l.43-.762h.885c.068.835.177 1.729.329 2.68.169.95.337 1.81.506 2.58l-.835.246c-.489-1.245-1.054-2.212-1.695-2.9-.641-.689-1.29-1.172-1.948-1.451-.658-.279-1.282-.418-1.872-.418-.725 0-1.324.18-1.796.54-.456.361-.684.878-.684 1.55Z" fill="#292929"/></svg>